<?xml version="1.0" standalone="no"?>
<!DOCTYPE svg PUBLIC "-//W3C//DTD SVG 20010904//EN"
 "http://www.w3.org/TR/2001/REC-SVG-20010904/DTD/svg10.dtd">
<svg version="1.0" xmlns="http://www.w3.org/2000/svg"
 width="1280.000000pt" height="1280.000000pt" viewBox="0 0 1280.000000 1280.000000"
 preserveAspectRatio="xMidYMid meet">

<g transform="translate(0.000000,1280.000000) scale(0.100000,-0.100000)"
fill="#000000" stroke="none">
<path d="M6205 11839 c-467 -17 -916 -89 -1332 -215 -140 -42 -388 -130 -493
-174 -41 -17 -101 -43 -134 -56 -110 -47 -420 -202 -521 -261 -299 -175 -544
-344 -815 -562 -148 -119 -169 -139 -405 -376 -283 -284 -471 -515 -700 -860
-480 -724 -760 -1545 -840 -2460 -22 -265 -28 -506 -16 -730 17 -317 34 -459
100 -847 43 -254 164 -676 279 -978 194 -507 501 -1048 818 -1444 127 -158
423 -487 490 -545 21 -18 68 -61 104 -95 503 -474 1223 -903 1905 -1134 774
-263 1580 -350 2370 -256 516 61 992 183 1444 368 134 55 556 261 621 303 25
17 92 58 150 93 395 238 867 632 1174 980 533 605 881 1199 1136 1935 200 579
310 1234 310 1856 0 865 -197 1714 -568 2444 -203 399 -487 817 -778 1145
-111 126 -470 477 -584 571 -595 494 -1236 845 -1952 1070 -553 173 -1144 249
-1763 228z m455 -539 c698 -41 1305 -205 1935 -522 246 -124 362 -192 555
-325 461 -320 783 -620 1132 -1058 208 -261 457 -667 581 -950 20 -44 54 -123
77 -175 61 -138 161 -447 214 -660 142 -576 180 -1201 111 -1800 -13 -113 -28
-208 -40 -266 l-5 -21 -86 26 -86 26 5 55 c3 30 13 109 21 175 49 402 44 883
-14 1290 -74 515 -213 961 -440 1415 -278 555 -701 1088 -1179 1489 -151 126
-312 245 -483 359 -396 263 -878 476 -1388 616 -153 41 -438 96 -535 103 -74
5 -102 12 -155 38 -285 141 -639 146 -949 14 -71 -31 -121 -44 -196 -54 -216
-29 -520 -98 -750 -172 -304 -98 -731 -294 -1003 -461 -112 -69 -418 -278
-465 -318 -19 -16 -63 -51 -98 -79 -91 -71 -312 -271 -395 -357 -698 -722
-1139 -1605 -1283 -2569 -63 -417 -68 -962 -15 -1397 10 -77 13 -137 8 -141
-11 -10 -166 -62 -171 -58 -5 5 -41 305 -54 447 -15 172 -15 613 0 795 60 724
239 1349 554 1930 143 263 144 265 251 420 231 334 443 580 731 848 421 391
885 696 1450 951 181 82 532 201 770 260 414 104 952 152 1395 126z m-55 -214
c133 -29 229 -70 360 -153 86 -55 121 -88 195 -180 131 -163 215 -375 222
-563 3 -64 3 -65 -22 -62 -156 17 -308 22 -870 28 -461 5 -657 10 -662 18 -21
31 -1 299 28 389 21 62 134 222 232 324 23 25 42 49 42 54 0 5 7 9 15 9 8 0
20 9 27 20 7 11 22 20 34 20 12 0 27 6 33 14 44 53 -156 13 -303 -61 -208
-104 -371 -297 -444 -523 -24 -73 -42 -174 -42 -235 0 -42 -13 -65 -38 -65
-12 0 -14 17 -9 103 8 161 55 290 164 455 152 230 387 374 689 422 79 12 262
5 349 -14z m682 -222 c191 -33 528 -130 718 -206 114 -46 380 -165 410 -183
11 -7 69 -38 129 -70 190 -99 481 -288 641 -414 128 -102 360 -304 363 -316 2
-7 -10 -16 -25 -20 -15 -3 -95 -34 -178 -67 -213 -85 -1806 -765 -1847 -788
-10 -6 -20 -10 -23 -10 -3 0 -5 74 -5 165 l0 165 35 45 c46 61 65 129 65 239
l1 91 37 26 c68 47 108 174 83 266 -15 55 -67 123 -113 148 -34 18 -38 24 -43
75 -3 30 -12 68 -20 83 -9 18 -15 57 -15 100 0 203 -87 439 -225 610 -58 70
-64 83 -41 74 8 -3 32 -9 53 -13z m-1737 -8 c0 -8 -3 -16 -8 -18 -15 -6 -79
-94 -113 -153 -91 -158 -137 -306 -150 -480 -8 -103 -12 -142 -25 -221 -3 -23
-11 -34 -27 -38 -12 -3 -44 -27 -70 -53 -73 -73 -95 -168 -61 -268 18 -50 83
-125 109 -125 12 0 15 -17 15 -93 0 -113 18 -180 65 -242 l35 -45 0 -160 c0
-115 -3 -160 -12 -160 -6 0 -192 77 -412 172 -221 94 -446 190 -501 213 -55
23 -217 92 -360 152 -466 198 -709 300 -739 310 -17 5 -31 14 -33 20 -2 6 45
55 105 109 468 425 1113 790 1737 984 104 33 172 50 380 99 57 13 65 13 65 -3z
m1290 -786 c337 -12 519 -27 545 -44 21 -14 48 -73 36 -80 -4 -3 -54 -1 -111
4 -167 14 -746 30 -1108 30 -202 0 -331 4 -327 9 3 5 -4 12 -15 16 -11 3 -20
15 -20 25 0 13 -9 20 -27 23 -29 4 -15 5 317 17 309 10 417 10 710 0z m-1327
-37 c-13 -2 -23 -10 -23 -18 0 -7 -13 -18 -30 -24 -16 -5 -30 -17 -30 -25 0
-10 -9 -16 -25 -16 -22 0 -25 4 -25 35 0 44 19 55 95 53 33 0 50 -3 38 -5z
m1507 -154 c124 -5 286 -16 360 -24 130 -13 136 -15 162 -44 36 -40 46 -107
23 -155 -27 -57 -39 -59 -192 -41 -201 23 -456 34 -935 42 -351 5 -425 8 -421
20 4 10 -14 13 -88 14 -211 2 -312 8 -340 19 -34 14 -38 30 -8 30 12 0 17 4
14 11 -4 6 -13 8 -21 5 -8 -3 -21 -3 -30 1 -13 5 -12 9 7 29 12 13 28 24 36
24 7 0 13 4 13 9 0 5 30 14 68 21 37 6 100 18 140 27 143 30 716 36 1212 12z
m-1744 -61 c-14 -49 -24 -114 -21 -138 2 -14 4 -30 4 -37 1 -6 8 -13 18 -15
14 -3 14 -4 1 -16 -13 -10 -20 -8 -41 14 -46 46 -44 139 5 191 27 29 42 30 34
1z m1614 -258 c219 -10 529 -37 557 -47 11 -4 13 -14 9 -36 -3 -17 -8 -32 -9
-34 -2 -1 -37 4 -79 12 -132 25 -378 36 -953 41 -308 3 -570 7 -582 10 -27 5
-31 24 -5 25 14 0 14 2 -3 9 -26 11 -25 11 135 19 213 12 695 12 930 1z
m-1467 -55 c-33 -14 -44 -34 -20 -36 6 0 -1 -7 -18 -14 -38 -17 -45 -12 -45
31 l0 34 58 0 57 -1 -32 -14z m1327 -85 c346 -14 669 -45 691 -67 13 -13 -3
-77 -26 -110 -18 -26 -51 -29 -133 -13 -95 18 -336 29 -732 35 -483 7 -713 15
-730 25 -8 5 -11 23 -8 54 3 29 1 46 -6 46 -6 0 -3 5 7 11 41 24 544 34 937
19z m-1355 -114 c7 -32 18 -62 26 -66 11 -7 10 -10 -4 -16 -25 -9 -53 19 -67
71 -10 36 -10 48 0 60 21 25 33 12 45 -49z m1415 -146 c0 -5 -4 -10 -9 -10 -5
0 -46 -35 -92 -77 -47 -43 -152 -134 -234 -203 -298 -247 -403 -344 -526 -487
-159 -183 -306 -435 -365 -625 -14 -46 -30 -92 -34 -103 -12 -28 -12 575 0
655 25 172 146 423 299 620 83 108 146 175 195 212 l39 28 364 0 c235 0 363
-4 363 -10z m-1290 -2716 l0 -2706 -27 6 c-16 4 -34 14 -40 23 -10 13 -13 562
-13 2664 0 1455 3 2660 6 2677 6 29 16 36 62 41 9 1 12 -546 12 -2705z m1810
2696 c13 -8 15 -285 18 -2377 1 -1302 -1 -2508 -4 -2679 l-6 -311 -34 -17
c-19 -9 -37 -16 -40 -16 -4 0 -3 188 0 418 8 497 7 302 7 2891 0 1146 2 2088
5 2093 7 11 35 10 54 -2z m-4330 -504 c96 -83 211 -182 256 -221 44 -38 127
-111 185 -161 153 -134 343 -298 449 -389 184 -157 665 -577 795 -695 34 -30
169 -152 300 -270 131 -118 259 -234 284 -257 l46 -41 0 -159 0 -158 -75 -6
c-41 -3 -141 -12 -221 -19 -139 -13 -148 -13 -177 6 -17 10 -64 39 -104 64
-40 24 -116 72 -168 105 -52 34 -221 140 -375 235 -154 95 -372 231 -485 301
-113 70 -311 192 -440 270 -266 161 -416 253 -640 391 -85 53 -235 144 -332
204 -98 59 -178 112 -178 118 0 21 91 229 185 423 87 180 162 314 278 496 l49
77 96 -82 c54 -45 176 -150 272 -232z m7208 242 c150 -223 326 -552 412 -768
60 -150 62 -160 42 -167 -9 -4 -53 -30 -97 -58 -44 -29 -147 -92 -230 -142
-196 -119 -302 -183 -460 -280 -71 -44 -202 -124 -290 -178 -88 -54 -225 -138
-303 -187 -79 -49 -187 -115 -240 -147 -123 -73 -393 -242 -542 -339 -183
-119 -208 -135 -338 -213 -67 -41 -142 -86 -165 -101 -97 -63 -84 -60 -230
-43 -72 9 -169 19 -214 22 l-83 6 0 161 0 162 111 99 c61 55 162 144 223 199
61 54 167 149 236 211 69 62 148 132 177 156 80 68 312 269 482 419 85 74 240
209 345 299 105 90 209 180 231 200 22 20 87 77 145 127 58 50 198 172 311
270 334 290 420 364 424 364 3 0 26 -33 53 -72z m-2968 -240 c-1 -361 -16
-440 -118 -648 -139 -284 -385 -567 -727 -835 -357 -281 -525 -464 -687 -750
-72 -127 -99 -192 -135 -315 l-32 -115 2 360 3 360 28 85 c36 110 137 320 210
437 121 197 304 394 581 629 383 325 542 489 685 709 59 91 153 276 171 335 7
22 14 38 16 36 3 -3 4 -132 3 -288z m-2380 -40 c5 -13 30 -81 56 -153 25 -71
53 -136 62 -142 11 -9 62 -13 168 -13 155 0 188 -8 150 -36 -10 -7 -59 -48
-109 -92 -51 -44 -103 -89 -116 -99 l-23 -19 30 -110 c51 -182 61 -224 51
-229 -5 -4 -74 38 -154 91 l-146 97 -27 -20 c-72 -53 -254 -173 -263 -173 -15
0 -12 14 37 174 25 83 47 157 48 165 1 12 -101 104 -219 197 -61 48 -45 54
129 54 106 0 157 4 169 13 9 6 32 57 52 112 75 212 85 229 105 183z m3106 -15
c17 -41 69 -187 86 -243 6 -19 15 -38 22 -42 6 -4 56 -8 112 -8 118 0 224 -10
224 -20 0 -4 -42 -42 -92 -83 -51 -41 -110 -90 -131 -108 l-37 -34 40 -150
c60 -222 64 -218 -109 -102 -79 53 -145 97 -146 97 -2 0 -66 -40 -142 -90 -76
-49 -143 -90 -150 -90 -17 0 -13 14 43 192 24 75 42 142 38 150 -3 7 -53 51
-111 98 -57 47 -114 94 -126 105 l-21 20 29 6 c17 4 89 7 161 8 87 1 136 5
147 14 10 6 35 59 56 117 47 126 78 200 86 200 2 0 12 -17 21 -37z m-742
-1903 c-29 -166 -92 -311 -221 -510 -166 -255 -319 -413 -697 -719 -138 -111
-256 -222 -341 -321 -173 -201 -320 -439 -382 -619 -18 -51 -35 -96 -38 -100
-4 -3 -3 147 0 334 7 400 10 415 112 623 84 171 197 340 311 467 80 89 260
259 369 348 233 189 370 315 495 452 174 192 312 420 379 628 l24 73 3 -281
c2 -227 0 -298 -14 -375z m-5139 -65 c99 -35 299 -106 445 -158 358 -129 827
-294 983 -347 70 -24 127 -47 127 -50 0 -3 -87 -22 -192 -44 -458 -91 -867
-191 -1281 -313 -141 -42 -259 -74 -261 -72 -3 2 -12 78 -21 169 -18 167 -34
843 -21 876 4 11 12 14 24 9 9 -4 98 -35 197 -70z m8852 -267 c-3 -189 -10
-377 -16 -418 -5 -41 -15 -126 -22 -187 -7 -71 -16 -113 -23 -113 -6 0 -45 11
-86 24 -365 119 -1202 328 -1562 390 -49 9 -48 21 5 40 217 79 335 122 407
148 83 29 137 49 525 190 105 38 215 78 245 89 401 144 498 177 514 178 18 1
19 -10 13 -341z m-2987 -578 c96 -10 197 -27 225 -36 74 -26 146 -102 173
-184 59 -172 -7 -383 -140 -451 -21 -11 -38 -22 -38 -24 0 -3 17 -21 39 -40
73 -66 103 -180 82 -314 -31 -197 -159 -321 -334 -321 -105 0 -371 31 -386 45
-12 11 -8 20 21 57 44 53 63 92 72 141 16 86 36 287 36 358 0 68 -3 78 -25 99
l-25 23 36 31 c24 21 38 44 44 72 17 76 40 288 40 370 0 77 -2 84 -33 125 -59
77 -54 79 213 49z m-3101 -26 c68 -20 138 -84 176 -161 24 -50 29 -73 33 -166
6 -132 -9 -177 -79 -247 l-48 -48 53 -31 c104 -58 151 -159 150 -321 -1 -112
-24 -182 -83 -258 -51 -64 -125 -100 -243 -118 -51 -8 -132 -21 -179 -29 -153
-26 -169 -18 -124 59 37 64 40 125 16 321 -25 206 -34 241 -72 276 l-29 27 25
38 c30 44 32 81 9 256 -25 198 -38 245 -84 294 -58 63 -55 70 48 84 48 7 119
19 157 25 100 18 212 18 274 -1z m2388 -399 c-5 -285 -5 -290 -52 -450 -23
-80 -86 -217 -146 -321 -167 -290 -383 -523 -733 -792 -66 -51 -132 -102 -146
-113 -28 -22 -18 -22 -190 -9 -212 16 -320 31 -320 45 0 18 95 189 148 265
132 192 285 346 617 621 432 357 678 671 787 1004 41 125 41 125 35 -250z
m1508 314 c77 -12 146 -27 153 -34 18 -16 4 -43 -36 -69 -44 -29 -59 -61 -93
-203 -41 -169 -49 -281 -23 -329 l19 -35 -32 -25 c-38 -30 -64 -104 -88 -254
-21 -133 -19 -184 7 -231 24 -43 85 -79 134 -79 53 1 110 35 138 82 31 53 75
232 83 340 6 72 4 82 -17 110 -19 25 -20 33 -9 37 30 10 68 60 83 112 27 88
66 293 66 343 0 30 -9 65 -26 98 -16 32 -22 54 -16 60 15 15 321 -42 346 -65
l21 -18 -25 -17 c-85 -58 -106 -103 -155 -332 -30 -145 -31 -195 -5 -234 l19
-30 -38 -35 c-37 -35 -40 -43 -79 -206 -50 -208 -68 -252 -129 -313 -158 -156
-492 -98 -595 103 -35 67 -34 148 2 344 34 183 33 220 -1 257 l-20 21 34 20
c47 28 65 74 93 232 32 184 31 251 -2 308 -30 51 -20 78 25 69 14 -3 89 -15
166 -27z m-4490 11 c3 -5 -5 -47 -19 -92 -14 -46 -39 -144 -56 -218 -17 -74
-39 -173 -50 -220 -11 -47 -33 -143 -49 -215 -85 -368 -101 -445 -101 -474 0
-30 1 -31 48 -31 59 0 144 38 169 76 10 15 36 61 58 103 29 55 46 77 62 79 27
4 29 -2 43 -158 6 -63 13 -131 16 -151 l6 -35 -119 -27 c-65 -14 -183 -38
-263 -52 -80 -14 -244 -51 -364 -81 -256 -64 -259 -64 -232 26 9 30 16 70 16
90 0 61 -60 214 -88 225 -16 6 -124 -20 -163 -40 -34 -18 -39 -32 -39 -108 0
-95 15 -133 78 -199 45 -47 54 -62 46 -75 -12 -19 -247 -88 -270 -79 -18 7
-16 37 6 111 7 23 14 138 17 275 5 233 5 235 -18 264 -12 15 -35 36 -51 46
l-29 18 43 29 c40 26 44 33 50 83 3 30 9 179 12 330 l5 275 23 6 c13 3 40 9
60 13 l38 7 30 -66 c16 -36 30 -69 30 -72 0 -7 83 -185 162 -351 26 -54 54
-94 80 -116 23 -20 35 -37 29 -41 -6 -3 -11 -17 -11 -30 0 -26 102 -290 145
-374 27 -54 90 -131 106 -131 12 0 32 75 89 345 28 132 66 305 85 385 63 266
95 420 95 451 l0 32 -45 -6 c-59 -9 -138 -49 -163 -84 -11 -16 -34 -70 -52
-120 -32 -92 -64 -139 -79 -115 -4 6 -13 85 -20 174 -21 252 -31 220 74 241
384 76 547 99 560 77z m5548 -230 c335 -87 412 -112 415 -137 2 -12 -12 -79
-32 -150 -19 -70 -37 -143 -41 -161 -6 -29 -10 -33 -33 -30 -24 3 -28 8 -35
58 -25 178 -63 232 -188 263 -58 15 -90 -48 -160 -303 -28 -105 -29 -121 -3
-147 31 -31 62 -29 115 7 52 35 99 40 99 10 0 -11 -13 -66 -29 -122 -16 -57
-32 -121 -36 -143 -4 -22 -11 -48 -17 -58 -9 -18 -11 -18 -29 -1 -10 9 -19 22
-19 28 0 33 -25 91 -52 121 -41 47 -80 48 -108 3 -27 -44 -130 -358 -130 -395
0 -44 30 -66 100 -71 52 -4 66 -1 117 28 32 18 74 47 93 66 40 38 96 55 105
32 3 -8 -6 -41 -21 -74 -15 -32 -42 -104 -59 -159 -21 -64 -38 -100 -47 -99
-7 1 -119 31 -248 67 -129 36 -257 71 -285 78 -88 21 -98 48 -35 91 61 42 85
89 144 286 59 194 66 244 40 293 -8 17 -14 32 -12 34 2 1 18 10 35 19 38 19
60 58 96 171 73 224 83 316 41 377 -29 41 -26 68 6 68 11 0 107 -22 213 -50z
m795 -229 c88 -28 183 -59 210 -71 58 -25 125 -90 147 -143 58 -139 22 -325
-84 -440 -41 -44 -126 -92 -182 -104 -35 -7 -35 -11 -4 -73 40 -79 35 -139
-25 -310 -49 -138 -51 -148 -48 -234 l3 -91 -32 1 c-39 2 -141 48 -159 72 -38
51 -27 128 48 317 61 154 69 213 40 272 -35 68 -75 71 -114 10 -39 -63 -134
-285 -147 -346 -9 -43 -8 -65 6 -122 23 -96 16 -101 -89 -62 -46 18 -111 40
-145 51 -118 39 -128 54 -60 100 23 16 49 38 58 48 36 42 108 200 169 369 24
66 28 122 11 153 -16 29 -15 29 28 52 50 25 84 83 149 260 62 165 70 211 47
268 -17 41 -15 72 4 72 5 0 81 -22 169 -49z m-8112 -3 c91 -47 156 -142 183
-266 24 -113 12 -184 -45 -263 -35 -48 -35 -59 0 -59 36 -1 99 -35 139 -76 76
-78 136 -253 122 -357 -14 -111 -94 -223 -190 -267 -25 -12 -119 -46 -207 -76
-144 -50 -162 -54 -176 -40 -14 14 -14 19 3 55 27 62 16 147 -45 331 -64 196
-86 241 -127 260 -38 18 -39 23 -14 64 26 42 17 91 -53 302 -54 161 -92 234
-121 234 -8 0 -27 11 -42 24 -21 19 -25 27 -17 36 7 7 92 38 190 71 171 56
183 59 264 56 68 -3 95 -9 136 -29z m-694 -263 c-5 -126 7 -224 33 -275 26
-52 28 -70 6 -70 -28 0 -58 35 -75 89 -19 58 -59 328 -52 347 6 16 41 32 72
33 20 1 21 -2 16 -124z m5445 -1032 c0 -87 -3 -165 -8 -174 -8 -16 -165 -57
-175 -46 -3 3 13 32 35 64 43 63 87 159 117 256 10 31 21 57 24 57 4 0 7 -71
7 -157z m-1917 -21 c0 -97 0 -98 -30 -120 -40 -30 -60 -72 -71 -150 -8 -58
-14 -69 -48 -98 -58 -50 -84 -119 -79 -215 3 -67 7 -83 33 -121 17 -23 55 -60
85 -81 62 -42 64 -47 80 -172 28 -223 123 -416 288 -583 227 -230 538 -346
882 -329 555 28 994 422 1053 945 l11 104 42 29 c77 53 110 103 125 193 14 82
-11 154 -77 226 -24 26 -34 48 -39 85 -8 67 -36 127 -74 161 -30 27 -31 29
-31 120 0 51 3 95 8 97 13 9 532 -63 792 -109 304 -54 1047 -208 1059 -219 6
-7 3 -14 -80 -203 -48 -110 -60 -148 -53 -160 6 -10 97 -46 225 -89 118 -39
214 -76 214 -82 0 -28 -307 -315 -505 -472 -403 -320 -993 -615 -1515 -758
-457 -126 -803 -167 -1318 -158 -329 6 -410 13 -708 67 -718 130 -1392 431
-1968 879 -182 141 -476 420 -468 444 2 7 91 42 198 78 241 82 242 82 234 119
-8 38 -58 168 -97 253 -20 43 -28 71 -22 77 20 20 705 164 1086 229 178 31
691 106 751 110 15 1 17 -10 17 -97z m2114 -224 c19 -29 30 -91 22 -122 -7
-27 -50 -46 -176 -75 -175 -41 -390 -62 -710 -67 -309 -6 -310 -6 -685 36 -80
9 -302 57 -315 68 -9 7 34 32 59 33 17 1 20 3 9 6 -10 2 -18 9 -18 14 0 6 4 8
9 4 5 -3 12 -1 16 5 3 5 -1 10 -9 10 -9 0 -16 5 -16 11 0 6 11 8 28 5 75 -16
204 -27 475 -38 340 -14 669 -2 911 33 140 21 285 57 335 84 36 20 48 18 65
-7z m-2025 -2 c10 -11 8 -17 -6 -24 -28 -16 -22 -101 8 -125 l23 -18 -30 7
c-63 14 -80 59 -54 139 12 37 38 46 59 21z m-2299 -125 c0 -6 -4 -13 -10 -16
-21 -13 -8 -33 25 -39 47 -9 44 -22 -6 -29 -25 -3 -56 -18 -80 -37 -35 -28
-39 -29 -39 -11 0 32 -11 51 -29 51 -40 0 -26 15 47 51 83 41 92 44 92 30z
m6643 -25 c43 -19 81 -37 84 -40 4 -3 -8 -11 -25 -17 -26 -9 -32 -16 -32 -40
0 -16 -3 -29 -6 -29 -3 0 -22 14 -43 30 -21 17 -54 35 -74 41 -34 9 -53 32
-24 28 6 -1 22 -1 34 0 19 1 21 4 13 31 -5 17 -8 30 -7 30 1 0 37 -15 80 -34z
m-4484 -103 c-6 -16 -12 -58 -12 -94 -1 -53 3 -71 22 -97 30 -42 8 -41 -35 2
-32 32 -34 38 -34 102 0 56 4 72 22 91 31 33 51 31 37 -4z m2281 -5 c28 -46
27 -136 -1 -172 -58 -74 -233 -111 -659 -142 -101 -7 -691 -7 -725 0 -11 3
-78 5 -148 5 -83 1 -126 5 -122 11 4 6 -5 10 -20 10 -37 0 -256 46 -288 61
-15 7 -34 25 -41 41 -14 26 -13 30 15 58 17 16 33 29 37 29 4 -1 34 0 67 1 49
2 55 4 35 11 -18 6 -7 7 36 4 208 -15 642 -27 829 -21 372 10 709 52 851 105
44 16 87 30 97 30 9 1 26 -14 37 -31z m-4845 -29 c-9 -17 -15 -33 -12 -35 2
-3 27 -7 56 -11 28 -3 51 -9 51 -14 0 -4 -26 -18 -59 -29 -57 -21 -91 -55 -77
-78 3 -6 2 -13 -3 -17 -6 -3 -17 8 -26 25 -20 38 -45 38 -87 1 -31 -27 -70
-51 -82 -51 -16 0 -3 29 24 55 39 37 26 49 -34 31 -38 -12 -52 -12 -67 -3 -11
7 -18 16 -16 21 2 5 46 25 98 44 51 19 126 47 164 62 90 36 88 36 70 -1z
m7440 3 c119 -48 265 -102 275 -102 5 0 10 -4 10 -10 0 -12 -36 -12 -105 -1
-27 5 -53 7 -57 5 -4 -3 2 -25 14 -49 12 -25 19 -47 15 -51 -3 -4 -29 12 -58
35 -62 50 -85 52 -94 11 -9 -39 -37 -42 -29 -2 7 36 -24 69 -82 84 -24 7 -44
15 -44 19 0 4 23 12 50 19 47 11 64 30 40 45 -14 9 -12 28 3 22 6 -3 35 -14
62 -25z m-7815 -157 c0 -3 -15 -4 -32 -3 -18 1 -43 -1 -55 -6 -14 -4 -23 -3
-23 2 0 15 72 30 93 20 9 -5 17 -11 17 -13z m8226 0 c17 -14 15 -14 -26 -9
-57 8 -76 24 -29 24 19 0 44 -7 55 -15z m-3146 -169 c0 -32 -32 -186 -52 -246
-100 -310 -362 -553 -687 -637 -119 -30 -308 -41 -434 -24 -178 24 -353 100
-498 217 -185 148 -315 389 -343 637 -5 50 -4 57 11 57 32 0 41 -14 48 -75 17
-143 75 -294 159 -414 173 -245 447 -381 766 -381 230 1 416 62 602 200 132
98 260 281 312 445 21 67 48 197 41 203 -6 6 -11 -11 -25 -83 -7 -33 -15 -64
-19 -70 -4 -5 -16 -36 -26 -67 -11 -32 -23 -58 -27 -58 -4 0 -19 -25 -33 -55
-13 -30 -28 -55 -33 -55 -4 0 -15 -12 -24 -27 -22 -38 -143 -160 -187 -189
-20 -13 -54 -37 -76 -53 -67 -50 -152 -86 -225 -96 -19 -2 -59 -9 -89 -15 -69
-13 -122 -13 -101 0 10 6 -1 8 -33 5 -36 -3 -47 0 -47 11 0 8 -6 14 -12 15 -7
0 -4 4 7 9 18 8 17 9 -6 9 -15 1 -32 8 -39 16 -7 8 -16 12 -21 9 -5 -3 -9 0
-9 6 0 6 -39 29 -86 52 -71 33 -100 55 -165 122 -43 44 -79 86 -79 93 0 7 -9
17 -20 23 -11 6 -20 16 -20 21 0 6 -11 20 -24 30 -13 10 -26 33 -30 51 -5 26
-9 30 -16 18 -7 -11 -10 -5 -12 25 -1 22 -3 59 -4 82 -2 47 10 62 66 83 19 7
42 19 50 26 11 9 132 13 475 17 253 3 505 10 560 16 55 6 149 16 209 22 60 6
125 17 145 24 47 18 51 18 51 1z m2505 -26 c39 -16 78 -30 88 -30 9 0 17 -4
17 -9 0 -13 -300 -315 -405 -407 -118 -104 -301 -250 -415 -329 -362 -254
-629 -401 -989 -545 -433 -173 -858 -277 -1336 -327 -309 -32 -762 -23 -1120
23 -729 92 -1463 373 -2091 799 -108 73 -287 206 -304 225 -3 3 -32 28 -65 54
-179 143 -523 485 -510 506 3 4 17 11 32 15 15 3 46 15 70 26 23 10 49 19 58
19 8 0 82 -66 163 -146 529 -525 1159 -904 1884 -1134 654 -208 1267 -264
1988 -185 194 22 510 86 735 151 350 100 723 263 1055 462 367 220 586 390
917 714 83 81 153 148 155 148 2 0 35 -13 73 -30z"/>
<path d="M5455 10010 c-3 -5 -1 -10 4 -10 6 0 11 5 11 10 0 6 -2 10 -4 10 -3
0 -8 -4 -11 -10z"/>
<path d="M7998 5623 c-19 -22 -34 -106 -50 -284 -11 -125 -10 -139 5 -163 45
-68 151 -5 186 109 46 148 36 271 -25 324 -40 36 -92 42 -116 14z"/>
<path d="M7942 5033 c-29 -12 -51 -102 -73 -310 -14 -137 -8 -168 36 -179 61
-15 129 37 160 123 26 75 32 232 11 288 -25 66 -82 99 -134 78z"/>
<path d="M4660 5620 c-25 -25 -26 -100 -5 -284 17 -148 35 -186 87 -186 39 0
94 58 109 115 18 66 5 215 -25 280 -39 85 -119 122 -166 75z"/>
<path d="M4723 5024 c-26 -26 -26 -27 -19 -137 11 -182 31 -315 51 -337 37
-40 109 -9 146 62 18 35 23 60 23 128 0 150 -41 262 -108 294 -47 22 -63 20
-93 -10z"/>
<path d="M3128 4795 c-2 -103 -1 -188 2 -190 3 -2 30 3 60 10 30 7 67 16 82
19 26 6 27 7 13 39 -90 209 -133 301 -143 305 -8 2 -12 -48 -14 -183z"/>
<path d="M10642 5021 c-27 -28 -132 -287 -151 -369 -14 -66 11 -87 101 -83 90
4 226 257 203 379 -9 46 -63 102 -100 102 -17 0 -37 -11 -53 -29z"/>
<path d="M2275 5113 c-34 -8 -55 -34 -55 -67 1 -60 77 -312 112 -373 37 -61
111 -34 143 52 40 104 -35 329 -125 375 -22 11 -43 19 -47 19 -4 -1 -17 -4
-28 -6z"/>
<path d="M2433 4520 c-47 -20 -41 -69 38 -306 27 -84 58 -159 69 -169 14 -13
28 -16 54 -11 78 15 105 121 67 259 -27 100 -72 189 -107 212 -32 21 -91 28
-121 15z"/>
<path d="M4286 3405 l-48 -135 -139 0 c-84 0 -139 -4 -139 -10 0 -11 113 -107
173 -147 20 -14 37 -32 37 -40 0 -7 -16 -67 -35 -133 -19 -66 -35 -122 -35
-125 0 -13 22 -1 120 65 58 38 112 70 121 70 13 0 151 -86 215 -135 26 -19 25
6 -5 125 -17 67 -31 127 -31 134 0 6 33 36 72 66 98 75 138 110 138 121 0 5
-60 9 -134 9 -102 0 -136 3 -145 14 -7 8 -27 60 -46 115 -37 109 -51 141 -63
141 -4 0 -29 -61 -56 -135z"/>
<path d="M8384 3408 l-49 -133 -137 -3 c-76 -1 -138 -6 -138 -10 0 -14 44 -51
199 -168 12 -10 9 -29 -24 -143 -21 -72 -35 -134 -32 -138 4 -3 58 28 121 70
63 42 117 77 121 77 4 0 52 -32 108 -71 105 -74 127 -87 127 -73 0 5 -13 61
-29 124 -16 63 -31 121 -33 129 -1 7 35 44 82 82 98 79 120 99 120 110 0 5
-62 10 -137 11 l-138 3 -46 130 c-25 71 -50 130 -56 132 -5 2 -31 -56 -59
-129z"/>
</g>
</svg>
